<svg version="1.2" xmlns="http://www.w3.org/2000/svg" viewBox="0 0 687 101" width="687" height="101">
	<title>Logo_H-svg</title>
	<style>
		.s0 { fill: #ffffff00 } 
		.s1 { fill: #ffffff00 } 
		.s2 { fill: #6ea8cc } 
		.s3 { fill: #2663a9 } 
		.s4 { fill: none } 
	</style>
	<path id="Layer" class="s0" d="m-195-489h1080v1080h-1080z"/>
	<g id="580fc65f-7df0-4d2b-847a-ebb0a64aaf15">
		<path id="Layer" class="s1" d="m-195-489h1080v1080h-1080z"/>
	</g>
	<g id="d2553d1e-43f7-4b8d-a964-fc53466fc652">
	</g>
	<g id="Layer">
		<path id="Layer" fill-rule="evenodd" class="s2" d="m210.1 37.3c0 19.5-21.4 22-35.6 22q-2.5 0-5.1 0-2.4-0.1-4.9-0.1v27.7h-6.5v-71.4h6.5c37 0 45.6 9.3 45.6 21.8zm-6.3 0c0-9.4-16-12.3-39.3-12.3v25c1.7 0 39.3 3.1 39.3-12.7z"/>
	</g>
	<g id="Layer">
		<path id="Layer" fill-rule="evenodd" class="s2" d="m279.6 77.8v9.1h-6.5v-9.1c0-9-6.8-17.2-9.1-18.2-4.3 2-16.9 6.5-30.2 3.8v23.5h-6.6v-71.4h6.6c40.1 0 45.9 8.6 45.9 21.8 0 10.3-8.5 16.7-10.1 17.7 2.5 0.2 10 10.1 10 22.8zm-6.5-40.5c0-11.5-15.1-12.2-39.3-12.2v29c23.1 3.7 39.3-7.9 39.3-16.8z"/>
	</g>
	<g id="Layer">
		<path id="Layer" fill-rule="evenodd" class="s2" d="m362.3 51.2c0 20.2-14.9 35.9-33.1 35.9-19.1 0-33.2-15.7-33.2-35.9 0-20.1 13.8-35.9 33.2-35.9 19.3 0 33.1 15.8 33.1 35.9zm-6.4 0c0-15.3-10.7-26.6-26.7-26.6-15.1 0-26.6 10.9-26.6 26.6 0 15.4 11.7 26.6 26.6 26.6 14.6 0 26.7-10.9 26.7-26.6z"/>
	</g>
	<g id="Layer">
		<path id="Layer" class="s2" d="m425.9 15.3l-23.5 71.7h-7.1l-23.5-71.7h7.2l19.9 60.7 19.9-60.7z"/>
	</g>
	<g id="Layer">
		<path id="Layer" class="s2" d="m448.2 55.9v21.7h38.6v9.4h-45.1v-71.2h45.1v9.1h-38.6v21.7h38.6v9.3z"/>
	</g>
	<g id="Layer">
		<path id="Layer" class="s2" d="m555.5 67.7c0 14.4-14.6 20.1-26.4 20.1-7.3 0-20.8-4.6-24.2-13.4l4.5-6.4c1.7 6.7 12 10.6 19.8 10.6 8.8 0 20.1-4.7 20.1-10.9 0-7.1-9.7-9.6-20-12-10.6-2.5-26.8-3-26.8-21.4 0-14.3 15.3-19 25.3-19 8.1 0 20.6 4.6 24.5 12.5l-4.5 6.5c-2.6-6.3-12.6-9.8-20-9.8-9.3 0-18.7 4-18.7 9.7 0 8.3 10.5 10.4 21.1 12.4 10.9 2 25.3 5.4 25.3 21.1z"/>
	</g>
	<g id="Layer">
		<path id="Layer" class="s2" d="m619.7 15.3v9.2h-23v62.5l-6.6-0.1 0.1-62.4h-23v-9.3h25.6 1.3z"/>
	</g>
	<g id="Layer">
		<path id="Layer" fill-rule="evenodd" class="s2" d="m669.3 87l-1.3-4c-2.9-8.3-9.9-13.9-18.7-13.9-9.1 0-15.5 5.6-18.4 13.5l-1.4 4.4h-7.2l23.5-71.7h7.2l23.5 71.7c0 0-7.2 0-7.2 0zm-7.6-23.2l-12.3-37.6-12.1 36.9c3.5-2.3 7.5-3.4 11.9-3.4 4.4 0 8.7 1.4 12.5 4.1z"/>
	</g>
	<g id="Layer">
		<path id="Layer" fill-rule="evenodd" class="s3" d="m84.7 49.1q8.6 0.2 14.8-6.1 6.4-6.3 6.3-15 0.1-8.6-6.3-14.9-1.8-1.8-3.8-3.1h28c3.2 0 5.8 2.6 5.8 5.8v70.2c0 3.2-2.6 5.7-5.8 5.7h-60.4v-81.7h5.8v39.1z"/>
	</g>
	<g id="Layer">
		<path id="Layer" fill-rule="evenodd" class="s2" d="m13.8 15.8c0-3.2 2.6-5.8 5.8-5.8h18v81.7h-18c-3.2 0-5.8-2.5-5.8-5.7z"/>
	</g>
	<g id="Layer">
		<path id="Layer" class="s4" d="m13.5 10.1h115.3v81.9h-115.3z"/>
	</g>
	<g id="Layer">
		<path id="Layer" class="s4" d="m13.5 10.1h115.3v81.9h-115.3z"/>
	</g>
	<g id="Layer">
		<path id="Layer" class="s4" d="m158.1 14.7h516.6v72.1h-516.6z"/>
	</g>
	<g id="Layer">
		<path id="Layer" class="s4" d="m63 10.1h66.1v81.9h-66.1z"/>
	</g>
	<g id="Layer">
		<path id="Layer" class="s4" d="m13.6 10.1h23.9v81.9h-23.9z"/>
	</g>
	<g id="Layer">
		<path id="Layer" class="s4" d="m296.3 14.7h66.5v72.1h-66.5z"/>
	</g>
	<g id="Layer">
		<path id="Layer" class="s4" d="m371.7 14.7h54.1v72.1h-54.1z"/>
	</g>
	<g id="Layer">
		<path id="Layer" class="s4" d="m622.3 14.7h54.1v72.1h-54.1z"/>
	</g>
	<g id="Layer">
		<path id="Layer" class="s4" d="m227.2 14.7h52.9v72.1h-52.9z"/>
	</g>
	<g id="Layer">
		<path id="Layer" class="s4" d="m502.5 14.7h52.9v72.1h-52.9z"/>
	</g>
	<g id="Layer">
		<path id="Layer" class="s4" d="m566.8 14.7h52.8v72.1h-52.8z"/>
	</g>
	<g id="Layer">
		<path id="Layer" class="s4" d="m158.1 14.7h51.6v72.1h-51.6z"/>
	</g>
</svg>